HIERARCHY
ROOT Hips
{
	OFFSET 0.00 0.00 0.00
	CHANNELS 6 Xposition Yposition Zposition Yrotation Xrotation Zrotation
	JOINT Spine
	{
		OFFSET	0.0000	9.2263	1.5771
		CHANNELS 3 Xrotation Yrotation Zrotation
		JOINT Spine1
		{
			OFFSET	0.0000	16.2540	-0.1656
			CHANNELS 3 Xrotation Yrotation Zrotation
			JOINT Spine2
			{
				OFFSET	0.0000	13.6396	-1.2923
				CHANNELS 3 Xrotation Yrotation Zrotation
				JOINT Neck
				{
					OFFSET	0.0000	13.8774	-4.3542
					CHANNELS 3 Xrotation Yrotation Zrotation
					JOINT Neck1
					{
						OFFSET	0.0000	4.3400	0.9269
						CHANNELS 3 Xrotation Yrotation Zrotation
						JOINT Head
						{
							OFFSET	0.0000	4.0266	0.8585
							CHANNELS 3 Xrotation Yrotation Zrotation
							End Site
							{
								OFFSET 0.0000 23.0297 0.1231
							}
						}
					}
				}
				JOINT LeftShoulder
				{
					OFFSET	6.1442	10.1870	-3.7932
					CHANNELS 3 Zrotation Xrotation Yrotation
					JOINT LeftArm
					{
						OFFSET	12.3191	-1.1130	-1.7935
						CHANNELS 3 Zrotation Xrotation Yrotation
						JOINT LeftForeArm
						{
							OFFSET	27.6870	0.0000	0.0000
							CHANNELS 3 Xrotation Zrotation Yrotation
							JOINT LeftHand
							{
								OFFSET	27.8738	0.0000	0.0000
								CHANNELS 3 Zrotation Yrotation Xrotation
								End Site
								{
									OFFSET	10.0000	0.0000	0.0000
								}
							}
						}
					}
				}
				JOINT RightShoulder
				{
					OFFSET	-6.1402	10.1870	-3.7932
					CHANNELS 3 Zrotation Xrotation Yrotation
					JOINT RightArm
					{
						OFFSET	-12.3231	-1.1130	-1.7935
						CHANNELS 3 Zrotation Xrotation Yrotation
						JOINT RightForeArm
						{
							OFFSET	-27.6870	0.0000	0.0000
							CHANNELS 3 Xrotation Zrotation Yrotation
							JOINT RightHand
							{
								OFFSET	-27.8738	0.0000	0.0000
								CHANNELS 3 Zrotation Yrotation Xrotation
								End Site
								{
									OFFSET	-10.0000	0.0000	0.0000
								}
							}
						}
					}
				}
			}
		}
	}
	JOINT LeftUpLeg
	{
		OFFSET	9.6338	-3.2733	0.0000
		CHANNELS 3 Xrotation Yrotation Zrotation
		JOINT LeftLeg
		{
			OFFSET	0.0000	-41.7300	-1.7300
			CHANNELS 3 Xrotation Yrotation Zrotation
			JOINT LeftFoot
			{
				OFFSET	0.0126	-39.1900	-0.8477
				CHANNELS 3 Xrotation Yrotation Zrotation
				JOINT LeftToeBase
				{
					OFFSET	-0.1833	-12.1931	8.2823
					CHANNELS 3 Xrotation Yrotation Zrotation
					End Site
					{
						OFFSET 0.0000 0.0000 10.1681
					}
				}
			}
		}
	}
	JOINT RightUpLeg
	{
		OFFSET	-9.6338	-3.2733	0.0000
		CHANNELS 3 Xrotation Yrotation Zrotation
		JOINT RightLeg
		{
			OFFSET	0.0000	-41.7300	-1.7300
			CHANNELS 3 Xrotation Yrotation Zrotation
			JOINT RightFoot
			{
				OFFSET	0.0126	-39.1900	-0.8477
				CHANNELS 3 Xrotation Yrotation Zrotation
				JOINT RightToeBase
				{
					OFFSET	-0.1833	-12.1931	8.2823
					CHANNELS 3 Xrotation Yrotation Zrotation
					End Site
					{
						OFFSET 0.0032 0.0000 10.1681
					}
				}
			}
		}
	}
}
MOTION
Frames: 11
Frame Time: 0.0333333
-0.0184	96.2922	-0.4611	-4.4667	6.3326	-0.6739	-0.1161	0.6069	0.5244	-0.2374	1.2096	1.0211	-0.2374	1.2096	1.0211	-5.4535	-0.0006	-0.0036	0	0	0	2.7931	2.4578	-2.0414	-7.3146	-1.0405	-0.0669	-70.4624	32.5488	-3.2376	0.1836	-0.0155	-21.5071	-0.3429	14.4243	-14.7024																																														9.2766	-1.174	0.9445	64.821	33.0015	2.3254	0.1658	0.0169	22.0557	-0.1366	-9.6682	2.757																																														-14.9796	10.7142	2.6646	12.1204	-0.015	-0.297	-3.7436	6.1023	-0.0794	0.003	-0.0262	0.0626	-12.6561	0.4645	1.248	9.1062	0.0151	0.2298	-2.752	2.831	-0.7507	-0.0122	-0.1097	0.2621
-0.0045	96.2913	-0.4515	-4.5283	6.3675	-0.6956	-0.1266	0.6067	0.5188	-0.2582	1.209	1.0094	-0.2582	1.209	1.0094	-5.4044	-0.0035	0.0152	0	0	0	2.8505	2.4547	-2.0232	-7.2309	-1.0235	-0.0711	-70.4757	32.5289	-3.2471	0.1849	-0.0153	-21.4193	-0.4661	14.3403	-14.9216																																														9.2809	-1.1517	0.9853	64.8544	32.9795	2.3324	0.1673	0.0169	22.0479	-0.1324	-9.7241	2.8274																																														-15.0407	10.6935	2.683	12.1949	-0.0152	-0.3	-3.7964	6.178	-0.0714	0.0029	-0.0258	0.0616	-12.6676	0.4516	1.2593	9.0547	0.015	0.2277	-2.7221	2.9018	-0.74	-0.0122	-0.1097	0.2621
0.0079	96.2878	-0.4273	-4.6292	6.3863	-0.7258	-0.1477	0.6021	0.5107	-0.3002	1.1995	0.9926	-0.3002	1.1995	0.9926	-5.2698	-0.0142	0.0529	0	0	0	2.9168	2.4048	-1.9387	-7.1207	-1.0103	-0.0688	-70.5385	32.5497	-3.2136	0.1872	-0.0149	-21.2468	-0.6681	14.1755	-15.2158																																														9.2671	-1.0843	1.1217	64.9078	32.8738	1.8931	0.1686	0.0194	22.9081	-0.096	-10.328	2.9183																																														-15.1033	10.6394	2.7137	12.3366	-0.0155	-0.3058	-3.899	6.3229	-0.0661	0.0029	-0.0253	0.0605	-12.6602	0.4003	1.2753	9.0132	0.0149	0.2259	-2.7051	3.0489	-0.73	-0.0122	-0.1097	0.2621
0.0194	96.2818	-0.3915	-4.7584	6.3829	-0.7634	-0.1664	0.6104	0.5039	-0.3377	1.216	0.9781	-0.3377	1.216	0.9781	-5.0991	-0.033	0.0519	0	0	0	2.9964	2.2219	-1.7221	-7.0806	-0.9973	-0.0845	-70.5184	32.5728	-3.1671	0.1876	-0.0146	-21.1287	-0.9411	13.9842	-15.4746																																														9.1873	-1.003	1.2741	65.0044	32.759	1.541	0.1692	0.0213	23.5746	-0.0967	-10.8536	2.9422																																														-15.1606	10.5563	2.7546	12.5379	-0.016	-0.3139	-4.0445	6.522	-0.0626	0.0029	-0.0253	0.0605	-12.6373	0.3163	1.2949	8.9993	0.0149	0.2249	-2.7079	3.2556	-0.7206	-0.0122	-0.1097	0.2621
0.0303	96.2735	-0.3451	-4.9122	6.359	-0.8062	-0.178	0.6407	0.5013	-0.3611	1.2763	0.9718	-0.3611	1.2763	0.9718	-4.9171	-0.0612	-0.02	0	0	0	3.083	1.8678	-1.3619	-7.1478	-0.9834	-0.1145	-70.3941	32.5875	-3.0838	0.1852	-0.0146	-21.1358	-1.2002	13.7474	-15.5364																																														9.0178	-0.925	1.3979	65.1411	32.6826	1.2603	0.1682	0.0225	24.0885	-0.1505	-11.2123	2.8756																																														-15.2074	10.4475	2.8019	12.7834	-0.0167	-0.3237	-4.2239	6.7695	-0.0605	0.0029	-0.0255	0.0608	-12.6023	0.2035	1.3162	9.0163	0.0149	0.2251	-2.7321	3.5151	-0.7118	-0.0122	-0.1097	0.2621
0.0399	96.2631	-0.2865	-5.0978	6.3183	-0.8505	-0.1931	0.6743	0.4989	-0.3916	1.3434	0.966	-0.3916	1.3434	0.966	-4.689	-0.0956	-0.107	0	0	0	3.1487	1.4517	-0.9994	-7.2534	-0.9742	-0.1528	-70.2902	32.5909	-2.8547	0.1826	-0.0148	-21.232	-1.3918	13.4626	-15.486																																														8.8125	-0.8265	1.5606	65.2966	32.5879	1.0106	0.1668	0.0234	24.5095	-0.1961	-11.4559	2.82																																														-15.2383	10.3148	2.85	13.0599	-0.0175	-0.3347	-4.4322	7.0721	-0.0604	0.0029	-0.0253	0.0604	-12.561	0.0641	1.3354	9.0686	0.0149	0.2264	-2.7797	3.8332	-0.7037	-0.0122	-0.1097	0.2621
0.0479	96.251	-0.2153	-5.3165	6.2615	-0.8927	-0.2187	0.6985	0.4945	-0.4427	1.3916	0.9565	-0.4427	1.3916	0.9565	-4.3974	-0.1306	-0.1782	0	0	0	3.1856	1.0609	-0.7183	-7.3089	-0.9621	-0.1937	-70.2829	32.6031	-2.5625	0.1811	-0.0145	-21.2137	-1.619	13.1201	-15.5963																																														8.6104	-0.6926	1.8041	65.4554	32.433	0.7662	0.1659	0.0241	24.8867	-0.1916	-11.6628	2.8328																																														-15.2456	10.1593	2.8938	13.3525	-0.0183	-0.3466	-4.6623	7.4311	-0.0622	-0.0976	-0.0264	0.0628	-12.517	-0.099	1.3491	9.1622	0.0152	0.2292	-2.8541	4.2086	-0.696	-0.0122	-0.1097	0.2621
0.055	96.2372	-0.1324	-5.5626	6.1881	-0.9327	-0.252	0.7194	0.4902	-0.5096	1.4329	0.9475	-0.5096	1.4329	0.9475	-4.0476	-0.1713	-0.2586	0	0	0	3.2814	0.6064	-0.3855	-7.3035	-0.9378	-0.2353	-70.3461	32.6442	-2.3331	0.1803	-0.0138	-20.9674	-1.9376	12.6631	-15.9226																																														8.3977	-0.536	2.0998	65.6261	32.2404	0.5194	0.1649	0.0246	25.2333	-0.1586	-11.845	2.8756																																														-15.2285	9.9834	2.9323	13.6584	-0.0192	-0.359	-4.9116	7.8388	-0.0651	-0.1592	-0.0265	0.063	-12.4642	-0.2825	1.3571	9.2855	0.0155	0.233	-2.9508	4.6327	-0.6882	-0.0122	-0.1097	0.2621
0.0615	96.2218	-0.0388	-5.8289	6.0981	-0.9717	-0.2917	0.7457	0.488	-0.5892	1.4852	0.9428	-0.5892	1.4852	0.9428	-3.6336	-0.2561	-0.3767	0	0	0	3.5369	-0.1597	0.1158	-7.2894	-0.9061	-0.281	-70.4349	32.7141	-2.1362	0.18	-0.0128	-20.5912	-2.2132	12.0377	-16.318																																														8.1519	-0.3692	2.4186	65.8323	32.0328	0.2655	0.1638	0.0248	25.5248	-0.1307	-12.0016	2.9081																																														-15.1871	9.7912	2.966	13.9737	-0.02	-0.3718	-5.1765	8.2839	-0.0681	-0.206	-0.0266	0.0631	-12.4078	-0.4834	1.36	9.4489	0.016	0.2382	-3.0725	5.0951	-0.68	-0.0122	-0.1097	0.2621
0.0669	96.205	0.0652	-6.1069	5.9916	-1.0088	-0.3398	0.7783	0.4867	-0.6855	1.5501	0.9402	-0.6855	1.5501	0.9402	-3.131	-0.4415	-0.5358	0	0	0	3.9843	-1.52	0.752	-7.3023	-0.8756	-0.3318	-70.5313	32.7955	-1.8885	0.1801	-0.0117	-20.2159	-2.339	11.2729	-16.6847																																														7.8698	-0.1942	2.7652	66.0951	31.8037	-0.0007	0.163	0.0245	25.7317	-0.1135	-12.1508	2.9411																																														-15.12	9.5857	2.9944	14.2925	-0.0209	-0.3848	-5.4529	8.7552	-0.0714	-0.2233	-0.0266	0.0631	-12.3418	-0.6983	1.3577	9.6413	0.0166	0.2445	-3.2158	5.5842	-0.6715	-0.0122	-0.1097	0.2621
0.0702	96.187	0.1788	-6.387	5.8655	-1.0408	-0.3964	0.8134	0.4846	-0.799	1.62	0.9364	-0.799	1.62	0.9364	-2.5111	-0.7587	-0.7252	0	0	0	4.6329	-3.6058	1.4623	-7.3369	-0.8468	-0.387	-70.6286	32.8715	-1.5985	0.1804	-0.0107	-19.8482	-2.4418	10.4822	-16.982																																														7.5601	-0.0118	3.1402	66.4092	31.5467	-0.2726	0.1623	0.024	25.859	-0.0679	-12.2948	3.012																																														-15.0202	9.3679	3.0134	14.6049	-0.0216	-0.3975	-5.734	9.2431	-0.075	-0.2371	-0.0266	0.0632	-12.2663	-0.9234	1.3475	9.87	0.0175	0.2521	-3.385	6.0871	-0.6632	-0.0122	-0.1097	0.2621
